# xmcd
#
# Track frame offsets:
#	150
#	8987
#	17620
#	27817
#	36991
#	39218
#	51693
#	54263
#	65530
#	76943
#	89474
#	100973
#	114185
#	125491
#	129634
#	142955
#	154707
#	166229
#	168458
#	179645
#	190766
#	194698
#	197338
#	208722
#	219683
#	229537
#	238890
#	247669
#	262041
#	274494
#	277559
#	293240
#	304367
#	316498
#	327399
#	338679
#	341772
#
# Disc length: 4697 seconds
#
# Revision: 3
# Processed by: cddbd v1.5.2PL0 Copyright (c) Steve Scherf et al.
# Submitted via: audiograbber 1.83.01
#
DISCID=1f125725
DTITLE=Jerry Lee Lewis - Jerry Lee Lewis At Sun Records [CD 7)
DYEAR=2015
DGENRE=Rock and Roll
TTITLE0=Wild One (1) [mono]
TTITLE1=Wild One (2) [mono]
TTITLE2=Let The Good Times Roll [mono]
TTITLE3=Sexy Ways (Carryin' On) (3) [mono]
TTITLE4=High School Confidential (3.1) [false start] [mono]
TTITLE5=High School Confidential (3.2) [mono]
TTITLE6=High School Confidential (3.3) [2 false starts] [mono]
TTITLE7=High School Confidential (3.4) [chat and take] [mono]
TTITLE8=High School Confidential (3.5) [mono]
TTITLE9=High School Confidential (3.6) [mono]
TTITLE10=High School Confidential (3.7) [mono]
TTITLE11=I'll See You In My Dreams [false start and take] [mono]
TTITLE12=Break Up (1.1) [mono]
TTITLE13=Break Up (1.2) [fragment] [mono]
TTITLE14=Break Up (1.3) [chat and take] [mono]
TTITLE15=Break Up (1.4) [mono]
TTITLE16=Break Up (1.5) [chat and take] [mono]
TTITLE17=Break Up (1.6) [false start] [mono]
TTITLE18=Break Up (1.7) [mono]
TTITLE19=Break Up (1.8) [mono]
TTITLE20=Break Up (1.9) [fragment] [mono]
TTITLE21=Break Up (1.10) [fragment] [mono]
TTITLE22=Break Up (1.11) [mono]
TTITLE23=Break Up (1.12) [mono]
TTITLE24=Memory Of You [mono]
TTITLE25=Come What May [mono]
TTITLE26=Johnny B. Goode (1) [mono]
TTITLE27=That Lucky Old Sun [mono]
TTITLE28=Crazy Arms (2) [chat and take] [mono]
TTITLE29=Live And Let Live [chat and take] [mono]
TTITLE30=Crazy Heart (2) [chat and take] [mono]
TTITLE31=Settin' The Woods On Fire [mono]
TTITLE32=Break Up (2.1) [false start to 'Settin' The Woods On Fire' and take] [mo
TTITLE32=no]
TTITLE33=Break Up (2.2) [mono]
TTITLE34=Break Up (2.3) [chat and take] [mono]
TTITLE35=Break Up (2.4) [fragment] [mono]
TTITLE36=Break Up (2.5) [mono]
EXTD=
EXTT0=
EXTT1=
EXTT2=
EXTT3=
EXTT4=
EXTT5=
EXTT6=
EXTT7=
EXTT8=
EXTT9=
EXTT10=
EXTT11=
EXTT12=
EXTT13=
EXTT14=
EXTT15=
EXTT16=
EXTT17=
EXTT18=
EXTT19=
EXTT20=
EXTT21=
EXTT22=
EXTT23=
EXTT24=
EXTT25=
EXTT26=
EXTT27=
EXTT28=
EXTT29=
EXTT30=
EXTT31=
EXTT32=
EXTT33=
EXTT34=
EXTT35=
EXTT36=
PLAYORDER=
